<?xml version="1.0" encoding="UTF-8" standalone="no"?>
<!DOCTYPE svg PUBLIC "-//W3C//DTD SVG 1.1//EN" "http://www.w3.org/Graphics/SVG/1.1/DTD/svg11.dtd">
<svg xmlns="http://www.w3.org/2000/svg" version="1.1" viewBox="0.00 0.00 512.00 512.00">
<path fill="#000000" d="
  M 20.30 0.00
  L 276.77 0.00
  Q 279.40 0.76 280.69 2.06
  Q 327.12 48.46 373.52 94.88
  C 375.09 96.46 376.14 98.31 376.15 100.45
  Q 376.22 130.54 376.17 160.83
  A 0.60 0.60 0.0 0 0 376.49 161.36
  C 412.16 180.79 437.01 214.42 444.20 254.40
  Q 445.01 258.85 441.50 261.71
  C 438.18 264.44 432.76 263.64 430.60 259.88
  Q 429.66 258.24 429.21 255.99
  Q 421.59 217.25 392.71 191.16
  C 337.98 141.73 251.60 154.29 213.47 217.89
  C 190.94 255.47 191.36 303.40 214.84 340.41
  C 252.95 400.47 334.80 413.26 389.49 367.69
  C 414.23 347.08 428.71 317.51 431.12 285.33
  C 431.86 275.50 446.85 276.19 446.01 287.25
  Q 443.44 321.11 425.28 349.51
  Q 425.05 349.88 425.36 350.19
  L 443.06 367.90
  A 0.37 0.37 0.0 0 0 443.57 367.91
  C 447.63 364.19 451.88 365.41 455.48 369.04
  Q 477.36 391.09 498.49 412.00
  Q 505.10 418.54 507.67 423.26
  Q 511.28 429.92 512.00 437.87
  L 512.00 443.02
  Q 510.60 457.80 499.61 467.33
  C 488.36 477.08 471.94 478.47 459.23 471.45
  Q 454.42 468.79 447.78 462.03
  Q 425.68 439.51 405.28 419.51
  C 401.61 415.91 400.30 411.60 403.96 407.52
  Q 404.27 407.18 403.95 406.85
  L 386.49 389.39
  Q 386.10 389.00 385.62 389.28
  L 376.49 394.63
  Q 376.26 394.77 376.26 395.04
  Q 376.04 437.96 376.27 483.47
  Q 376.32 492.97 374.93 496.75
  C 372.27 503.98 366.37 509.77 358.74 511.37
  Q 357.23 511.69 355.72 512.00
  L 20.23 512.00
  Q 2.96 508.88 0.00 491.66
  L 0.00 114.46
  Q 1.97 107.72 8.25 108.25
  Q 12.17 108.58 13.95 111.81
  Q 15.01 113.73 15.01 117.88
  Q 15.02 303.57 15.01 489.25
  C 15.01 493.96 18.69 497.01 23.10 497.01
  Q 188.29 496.98 353.05 497.01
  C 357.85 497.01 361.13 493.84 361.14 488.71
  Q 361.17 445.57 361.15 402.03
  A 0.34 0.33 -10.4 0 0 360.69 401.72
  Q 338.14 410.12 314.33 410.13
  Q 229.69 410.17 147.40 410.13
  C 139.68 410.12 137.21 399.58 144.02 396.06
  Q 145.97 395.05 148.90 395.06
  Q 203.56 395.24 251.86 395.11
  Q 252.66 395.11 251.95 394.73
  Q 236.19 386.30 223.26 374.07
  Q 222.85 373.68 222.28 373.68
  Q 185.06 373.68 148.19 373.69
  C 137.39 373.69 137.41 358.60 147.93 358.59
  Q 177.69 358.56 208.69 358.60
  A 0.29 0.29 0.0 0 0 208.92 358.14
  Q 190.17 333.51 184.29 303.28
  Q 184.19 302.75 183.65 302.75
  Q 166.37 302.73 148.10 302.75
  C 137.32 302.76 137.19 287.60 148.60 287.68
  Q 165.79 287.81 181.72 287.71
  Q 182.20 287.71 182.17 287.22
  Q 181.46 276.61 182.34 266.64
  A 0.46 0.46 0.0 0 0 181.88 266.13
  Q 164.55 266.17 147.95 266.12
  C 137.46 266.10 137.60 251.15 147.51 251.15
  Q 165.12 251.13 183.96 251.15
  Q 184.57 251.15 184.69 250.55
  Q 190.90 221.43 208.88 197.89
  A 0.32 0.32 0.0 0 0 208.62 197.38
  Q 179.92 197.44 148.48 197.40
  C 137.18 197.39 137.44 182.32 147.98 182.32
  Q 183.71 182.31 222.23 182.32
  Q 222.78 182.32 223.18 181.95
  C 231.90 173.74 241.41 166.88 251.86 161.29
  Q 252.74 160.82 251.74 160.82
  Q 200.46 160.74 149.17 160.79
  C 145.68 160.79 143.18 160.32 141.30 157.49
  Q 139.52 154.82 140.19 151.75
  C 141.11 147.58 144.46 145.75 148.54 145.75
  Q 229.33 145.88 306.13 145.71
  Q 317.93 145.68 326.03 146.38
  Q 343.71 147.90 360.73 154.26
  Q 361.15 154.42 361.15 153.96
  L 361.15 108.70
  A 0.56 0.55 90.0 0 0 360.60 108.14
  Q 322.29 108.13 291.13 108.15
  C 281.22 108.16 272.62 102.38 269.31 93.14
  Q 267.87 89.11 267.92 81.65
  Q 268.13 48.43 267.94 15.87
  Q 267.94 14.99 267.06 14.99
  Q 145.53 15.01 22.97 14.99
  C 18.31 14.99 15.01 18.29 15.01 23.13
  Q 15.04 54.52 14.98 85.83
  Q 14.98 89.38 12.58 91.34
  C 7.66 95.36 1.70 92.77 0.00 86.73
  L 0.00 20.20
  Q 3.09 3.00 20.30 0.00
  Z
  M 283.01 84.85
  C 283.01 90.02 286.33 93.20 291.50 93.19
  Q 320.82 93.14 350.09 93.14
  A 0.18 0.18 0.0 0 0 350.22 92.83
  L 283.55 26.16
  A 0.30 0.30 0.0 0 0 283.04 26.38
  Q 283.01 53.69 283.01 84.85
  Z
  M 415.23 396.28
  L 432.41 379.04
  A 0.41 0.41 0.0 0 0 432.41 378.46
  L 416.99 363.09
  A 1.02 0.21 44.9 0 0 416.11 362.52
  L 398.65 380.04
  A 1.02 0.21 44.9 0 0 399.23 380.91
  L 414.65 396.28
  A 0.41 0.41 0.0 0 0 415.23 396.28
  Z
  M 448.51 384.18
  L 420.33 412.36
  A 0.63 0.63 0.0 0 0 420.33 413.26
  L 461.74 454.66
  A 20.85 20.47 45.0 0 0 490.95 454.93
  L 491.08 454.80
  A 20.85 20.47 45.0 0 0 490.81 425.59
  L 449.41 384.18
  A 0.63 0.63 0.0 0 0 448.51 384.18
  Z"
/>
<path fill="#000000" d="
  M 117.90 187.95
  A 16.83 16.83 0.0 0 1 101.07 204.78
  L 68.23 204.78
  A 16.83 16.83 0.0 0 1 51.40 187.95
  L 51.40 155.15
  A 16.83 16.83 0.0 0 1 68.23 138.32
  L 101.07 138.32
  A 16.83 16.83 0.0 0 1 117.90 155.15
  L 117.90 187.95
  Z
  M 102.85 155.16
  A 1.84 1.84 0.0 0 0 101.01 153.32
  L 68.29 153.32
  A 1.84 1.84 0.0 0 0 66.45 155.16
  L 66.45 187.94
  A 1.84 1.84 0.0 0 0 68.29 189.78
  L 101.01 189.78
  A 1.84 1.84 0.0 0 0 102.85 187.94
  L 102.85 155.16
  Z"
/>
<path fill="#000000" d="
  M 274.90 205.08
  C 239.49 224.08 223.43 264.85 235.21 303.25
  C 236.41 307.16 234.37 311.10 230.60 312.54
  C 226.93 313.95 222.35 311.99 221.12 308.25
  C 203.36 254.18 235.57 197.28 289.65 183.33
  C 355.76 166.29 418.50 220.44 411.35 288.27
  C 404.83 350.14 342.97 390.16 283.74 370.98
  Q 256.25 362.08 236.99 338.23
  Q 234.66 335.35 234.48 332.90
  C 233.91 325.29 243.40 321.82 248.11 327.97
  C 270.52 357.18 309.61 368.90 344.36 355.06
  C 398.12 333.64 414.60 265.04 375.12 222.06
  C 349.46 194.12 308.19 187.23 274.90 205.08
  Z"
/>
<path fill="#000000" d="
  M 306.03 265.88
  Q 315.46 256.43 325.19 246.21
  Q 331.24 239.85 335.12 238.03
  C 355.20 228.60 375.78 249.32 366.23 269.31
  Q 364.48 272.97 358.91 278.59
  Q 340.95 296.73 323.76 314.60
  C 314.15 324.59 299.46 325.58 289.51 315.80
  Q 280.50 306.96 270.18 297.05
  C 261.13 288.36 259.08 276.03 266.39 265.65
  C 274.41 254.27 290.37 252.69 300.83 261.90
  Q 302.93 263.74 304.95 265.87
  Q 305.48 266.43 306.03 265.88
  Z
  M 311.15 282.21
  C 308.04 285.39 303.39 285.17 300.34 282.24
  Q 295.82 277.92 291.39 273.58
  C 283.14 265.48 271.53 277.47 279.84 285.45
  Q 289.16 294.40 298.85 304.00
  C 303.48 308.58 308.35 308.94 313.02 304.11
  Q 334.11 282.28 350.48 265.64
  C 359.21 256.76 347.16 245.23 338.97 253.67
  Q 326.18 266.84 311.15 282.21
  Z"
/>
<path fill="#000000" d="
  M 117.9285 293.2519
  A 16.89 16.89 0.0 0 1 101.0680 310.1714
  L 68.3481 310.2285
  A 16.89 16.89 0.0 0 1 51.4286 293.3680
  L 51.3715 260.6281
  A 16.89 16.89 0.0 0 1 68.2320 243.7086
  L 100.9519 243.6515
  A 16.89 16.89 0.0 0 1 117.8714 260.5120
  L 117.9285 293.2519
  Z
  M 102.85 260.52
  A 1.78 1.78 0.0 0 0 101.07 258.74
  L 68.23 258.74
  A 1.78 1.78 0.0 0 0 66.45 260.52
  L 66.45 293.36
  A 1.78 1.78 0.0 0 0 68.23 295.14
  L 101.07 295.14
  A 1.78 1.78 0.0 0 0 102.85 293.36
  L 102.85 260.52
  Z"
/>
<path fill="#000000" d="
  M 117.9286 400.7919
  A 16.83 16.83 0.0 0 1 101.1280 417.6513
  L 68.2880 417.7086
  A 16.83 16.83 0.0 0 1 51.4287 400.9080
  L 51.3714 368.0881
  A 16.83 16.83 0.0 0 1 68.1720 351.2287
  L 101.0120 351.1714
  A 16.83 16.83 0.0 0 1 117.8713 367.9720
  L 117.9286 400.7919
  Z
  M 102.85 368.05
  A 1.83 1.83 0.0 0 0 101.02 366.22
  L 68.28 366.22
  A 1.83 1.83 0.0 0 0 66.45 368.05
  L 66.45 400.85
  A 1.83 1.83 0.0 0 0 68.28 402.68
  L 101.02 402.68
  A 1.83 1.83 0.0 0 0 102.85 400.85
  L 102.85 368.05
  Z"
/>
</svg>
