<?xml version="1.0" encoding="UTF-8" standalone="no"?>
<!DOCTYPE svg PUBLIC "-//W3C//DTD SVG 1.1//EN" "http://www.w3.org/Graphics/SVG/1.1/DTD/svg11.dtd">
<svg xmlns="http://www.w3.org/2000/svg" version="1.1" viewBox="0.00 0.00 512.00 512.00">
<path fill="#000000" d="
  M 123.61 0.00
  L 128.50 0.00
  Q 140.47 0.59 149.98 3.59
  C 173.68 11.08 192.48 28.25 201.91 51.17
  C 216.12 85.75 204.54 126.24 174.26 148.19
  C 153.21 163.44 126.30 167.99 101.49 160.25
  C 78.11 152.96 58.49 134.77 49.51 111.29
  C 34.67 72.54 51.08 29.62 87.09 9.86
  Q 103.56 0.82 123.61 0.00
  Z
  M 187.95 82.00
  A 61.95 61.95 0.0 0 0 126.00 20.05
  A 61.95 61.95 0.0 0 0 64.05 82.00
  A 61.95 61.95 0.0 0 0 126.00 143.95
  A 61.95 61.95 0.0 0 0 187.95 82.00
  Z"
/>
<path fill="#000000" d="
  M 235.06 0.00
  L 439.30 0.00
  Q 451.12 1.00 458.94 8.67
  C 464.97 14.59 467.99 22.53 467.99 30.97
  Q 467.98 253.07 468.04 475.52
  Q 468.04 485.67 466.81 490.12
  Q 464.70 497.72 459.05 503.31
  Q 451.18 511.10 439.17 512.00
  L 72.69 512.00
  Q 61.06 511.07 53.32 503.67
  Q 47.50 498.11 45.29 490.44
  Q 43.95 485.82 43.96 477.52
  Q 44.05 349.76 44.00 215.24
  C 44.00 211.11 45.85 207.26 49.76 205.44
  C 54.95 203.03 61.11 205.36 63.19 210.74
  Q 64.06 213.01 64.06 216.31
  Q 63.97 347.64 63.99 478.77
  Q 63.99 484.23 65.23 486.52
  C 67.48 490.69 71.12 491.95 75.56 491.96
  Q 259.73 492.05 436.65 491.99
  C 443.84 491.99 448.02 487.64 448.02 480.50
  Q 447.95 256.77 448.05 32.96
  Q 448.06 28.07 446.89 25.71
  C 444.59 21.07 440.44 19.97 435.57 19.97
  Q 333.14 20.05 236.21 19.98
  C 223.26 19.97 221.95 1.94 235.06 0.00
  Z"
/>
<path fill="#000000" d="
  M 169.19 245.50
  A 0.36 0.36 0.0 0 0 169.79 245.47
  Q 183.46 222.49 206.51 209.23
  C 211.37 206.44 216.21 204.46 221.24 202.28
  Q 221.90 201.99 221.40 201.47
  Q 209.31 188.88 207.44 172.53
  Q 206.66 165.73 207.03 155.86
  Q 207.36 147.04 210.68 139.03
  Q 216.39 125.21 228.33 117.06
  Q 245.52 105.32 265.92 109.40
  Q 275.85 111.38 283.94 117.23
  Q 301.43 129.86 304.45 150.80
  Q 305.30 156.64 305.03 166.79
  Q 304.50 187.14 290.55 201.54
  A 0.49 0.48 32.2 0 0 290.73 202.33
  Q 323.70 214.89 342.14 245.33
  A 0.32 0.32 0.0 0 0 342.66 245.36
  Q 369.00 213.27 368.90 171.99
  C 368.83 146.05 359.23 120.51 342.81 100.93
  Q 317.29 70.48 278.25 62.32
  Q 260.07 58.52 239.48 61.19
  Q 232.42 62.11 228.86 56.64
  C 225.91 52.11 227.39 45.32 232.38 42.86
  Q 235.20 41.47 238.78 41.07
  Q 282.44 36.22 319.11 56.10
  C 348.22 71.87 371.64 98.83 382.09 130.97
  Q 395.83 173.24 381.92 215.58
  Q 378.76 225.19 374.01 234.11
  Q 351.51 276.38 307.82 295.37
  Q 288.37 303.82 264.79 305.60
  C 227.73 308.39 189.62 294.25 163.20 268.15
  Q 132.88 238.21 125.08 196.32
  Q 123.83 189.59 128.62 185.77
  Q 132.49 182.69 137.40 184.03
  C 142.29 185.37 144.20 189.36 145.02 194.03
  Q 147.22 206.45 152.55 218.62
  C 154.27 222.55 156.46 226.21 158.50 230.02
  C 161.49 235.60 165.53 240.43 169.19 245.50
  Z
  M 281.43 180.74
  C 284.43 175.61 285.06 169.40 285.08 163.43
  Q 285.11 157.09 284.68 153.60
  Q 283.17 141.19 272.29 133.43
  C 255.62 121.54 231.24 131.53 227.68 151.75
  Q 226.75 157.02 226.96 165.64
  Q 227.16 174.07 230.11 179.89
  C 235.25 190.02 245.82 196.41 257.13 195.84
  Q 273.06 195.03 281.43 180.74
  Z
  M 184.66 260.75
  C 202.64 275.21 224.59 284.03 247.56 285.60
  Q 291.59 288.61 327.04 260.82
  Q 327.52 260.45 327.24 259.91
  Q 316.82 239.60 298.11 228.05
  C 272.49 212.24 239.87 212.13 214.16 227.89
  Q 195.08 239.58 184.56 260.27
  Q 184.42 260.55 184.66 260.75
  Z"
/>
<path fill="#000000" d="
  M 115.17 89.89
  Q 130.18 75.02 145.01 60.03
  Q 148.96 56.04 151.62 55.25
  C 161.81 52.21 168.68 64.67 161.26 72.09
  Q 142.06 91.31 123.40 110.03
  Q 120.51 112.93 117.70 113.80
  C 113.66 115.05 109.66 113.35 106.79 110.41
  Q 99.25 102.70 91.31 94.97
  Q 88.81 92.53 87.66 90.00
  C 85.23 84.69 88.25 78.57 93.70 76.75
  C 98.12 75.28 102.02 77.20 105.13 80.38
  Q 110.01 85.37 114.62 89.90
  A 0.40 0.39 -45.0 0 0 115.17 89.89
  Z"
/>
<circle fill="#000000" cx="54.00" cy="177.00" r="9.85"/>
<circle fill="#000000" cx="163.64" cy="352.00" r="9.86"/>
<rect fill="#000000" x="196.51" y="342.02" width="161.68" height="19.96" rx="9.85"/>
<circle fill="#000000" cx="163.64" cy="408.00" r="9.86"/>
<rect fill="#000000" x="196.51" y="398.02" width="161.68" height="19.96" rx="9.85"/>
</svg>
