<?xml version="1.0" encoding="UTF-8" standalone="no"?>
<!DOCTYPE svg PUBLIC "-//W3C//DTD SVG 1.1//EN" "http://www.w3.org/Graphics/SVG/1.1/DTD/svg11.dtd">
<svg xmlns="http://www.w3.org/2000/svg" version="1.1" viewBox="0.00 0.00 512.00 512.00">
<path fill="#000000" d="
  M 175.38 423.58
  Q 121.21 420.26 79.79 387.55
  C 4.71 328.27 -5.34 218.04 57.13 146.10
  C 87.28 111.39 129.46 90.94 175.54 88.44
  A 0.44 0.44 0.0 0 0 175.96 88.01
  Q 176.10 68.09 175.92 44.45
  Q 175.86 36.44 177.30 32.26
  C 181.01 21.46 190.54 15.97 201.73 15.97
  Q 300.97 16.03 399.49 15.99
  Q 403.34 15.99 405.96 18.61
  Q 449.81 62.40 493.54 106.19
  C 494.97 107.62 495.97 109.80 495.97 111.83
  Q 496.04 292.48 495.99 471.35
  C 495.98 484.96 485.66 495.99 471.82 495.99
  Q 340.11 496.03 200.07 495.98
  C 186.35 495.98 175.99 484.93 175.99 471.32
  Q 176.00 448.67 176.01 424.25
  Q 176.01 423.62 175.38 423.58
  Z
  M 351.98 256.25
  C 352.12 303.76 330.83 350.33 295.11 381.67
  Q 251.53 419.88 192.53 423.62
  Q 191.97 423.66 191.97 424.22
  Q 192.05 446.53 191.97 470.80
  C 191.95 476.09 194.95 480.04 200.51 480.04
  Q 325.94 479.94 470.02 480.06
  C 475.35 480.07 480.00 477.81 480.00 471.75
  Q 480.00 120.69 480.00 120.67
  A 0.70 0.69 -0.0 0 0 479.30 119.98
  Q 447.36 120.05 415.87 119.96
  C 402.20 119.92 392.04 108.89 392.02 95.21
  Q 391.97 65.42 392.01 32.82
  A 0.82 0.81 90.0 0 0 391.20 32.00
  Q 290.23 31.99 200.64 31.99
  C 195.71 31.99 192.01 35.12 192.01 40.47
  Q 191.99 142.76 192.00 247.14
  A 0.87 0.86 0.0 0 0 192.87 248.00
  Q 267.37 247.99 341.39 248.01
  Q 346.22 248.01 348.34 249.27
  Q 351.96 251.41 351.98 256.25
  Z
  M 407.98 95.57
  C 407.98 100.07 411.30 104.01 416.00 104.01
  Q 443.28 103.98 467.88 104.00
  A 0.34 0.34 0.0 0 0 468.13 103.42
  L 408.62 43.91
  Q 407.99 43.28 407.99 44.17
  Q 408.01 70.55 407.98 95.57
  Z
  M 43.90 197.33
  C 20.96 251.51 31.85 313.20 70.82 357.11
  Q 71.19 357.52 71.58 357.13
  L 175.64 253.07
  Q 176.00 252.71 176.00 252.20
  L 176.00 104.78
  Q 176.00 104.23 175.45 104.26
  C 116.89 107.93 66.64 143.65 43.90 197.33
  Z
  M 82.82 369.06
  C 116.59 399.23 161.35 412.84 205.93 406.39
  C 277.30 396.07 331.66 337.04 335.74 264.29
  A 0.27 0.27 0.0 0 0 335.47 264.00
  L 187.74 264.00
  A 1.03 1.01 -67.2 0 0 187.02 264.30
  L 82.80 368.51
  A 0.38 0.38 0.0 0 0 82.82 369.06
  Z"
/>
<path fill="#000000" d="
  M 219.10 55.98
  C 265.87 57.18 311.05 77.40 341.83 112.82
  Q 382.93 160.10 384.02 223.20
  C 384.13 229.30 380.05 232.02 374.38 232.02
  Q 218.44 231.97 217.63 232.05
  C 212.29 232.59 208.00 229.00 208.00 223.53
  Q 208.01 143.48 208.00 64.42
  Q 208.00 59.46 212.02 57.13
  Q 214.22 55.85 219.10 55.98
  Z
  M 367.71 215.74
  C 363.27 138.80 302.04 76.39 224.26 72.31
  A 0.25 0.24 1.1 0 0 224.00 72.55
  L 224.00 215.00
  A 1.00 1.00 0.0 0 0 225.00 216.00
  L 367.47 216.00
  A 0.24 0.24 0.0 0 0 367.71 215.74
  Z"
/>
<rect fill="#000000" x="400.00" y="152.00" width="64.00" height="16.00" rx="0.50"/>
<rect fill="#000000" x="400.00" y="200.00" width="64.00" height="16.00" rx="0.38"/>
<rect fill="#000000" x="400.00" y="248.00" width="64.00" height="16.00" rx="0.53"/>
<path fill="#000000" d="
  M 463.96 392.00
  A 71.97 71.97 0.0 0 1 391.99 463.97
  A 71.97 71.97 0.0 0 1 320.02 392.00
  A 71.97 71.97 0.0 0 1 391.99 320.03
  A 71.97 71.97 0.0 0 1 463.96 392.00
  Z
  M 447.96 391.98
  A 55.97 55.97 0.0 0 0 391.99 336.01
  A 55.97 55.97 0.0 0 0 336.02 391.98
  A 55.97 55.97 0.0 0 0 391.99 447.95
  A 55.97 55.97 0.0 0 0 447.96 391.98
  Z"
/>
<path fill="#000000" d="
  M 376.48 404.21
  L 418.03 362.66
  A 0.47 0.47 0.0 0 1 418.70 362.66
  L 429.40 373.35
  A 0.42 0.41 -45.5 0 1 429.40 373.94
  Q 406.85 396.42 383.42 420.02
  C 379.16 424.31 374.57 425.87 369.68 420.99
  Q 358.96 410.28 346.65 397.95
  A 0.44 0.43 -45.5 0 1 346.65 397.34
  L 357.26 386.73
  A 0.57 0.57 0.0 0 1 358.06 386.73
  L 375.55 404.21
  Q 376.01 404.68 376.48 404.21
  Z"
/>
</svg>
