<?xml version="1.0" encoding="UTF-8" standalone="no"?>
<!DOCTYPE svg PUBLIC "-//W3C//DTD SVG 1.1//EN" "http://www.w3.org/Graphics/SVG/1.1/DTD/svg11.dtd">
<svg xmlns="http://www.w3.org/2000/svg" version="1.1" viewBox="0.00 0.00 512.00 512.00">
<path fill="#000000" d="
  M 512.00 272.86
  L 512.00 282.56
  Q 509.10 333.05 473.15 367.94
  A 1.15 1.11 69.2 0 0 472.81 368.73
  C 472.63 378.86 473.58 389.87 471.81 399.30
  Q 468.83 415.21 456.94 426.85
  Q 441.88 441.58 419.36 441.59
  Q 361.14 441.60 302.45 441.57
  C 292.54 441.56 292.11 426.61 303.09 426.60
  Q 357.84 426.52 413.54 426.65
  Q 425.59 426.68 430.34 425.34
  C 445.29 421.13 456.57 408.21 457.60 392.66
  Q 457.95 387.35 457.76 381.12
  Q 457.74 380.32 457.07 380.76
  C 414.35 409.11 360.39 408.73 317.71 380.40
  Q 317.23 380.08 316.81 380.49
  L 301.77 395.53
  Q 301.37 395.93 301.50 396.48
  Q 303.52 405.69 296.34 412.89
  Q 266.27 443.03 236.70 472.55
  Q 225.70 483.53 211.03 482.20
  C 185.05 479.86 173.63 447.87 192.03 429.43
  Q 223.01 398.37 252.82 368.61
  C 257.61 363.83 262.40 362.99 268.86 363.85
  Q 269.48 363.93 269.92 363.49
  L 284.83 348.58
  Q 285.27 348.13 284.92 347.61
  Q 263.57 315.89 263.42 277.71
  A 0.45 0.45 0.0 0 0 262.97 277.26
  L 138.55 277.26
  Q 138.10 277.26 138.10 277.70
  Q 137.97 290.53 138.13 301.26
  Q 138.23 308.25 136.65 313.12
  C 130.70 331.39 108.65 338.44 93.14 327.15
  C 85.72 321.75 81.53 313.26 81.51 304.01
  Q 81.50 290.62 81.52 277.58
  Q 81.52 277.15 81.09 277.11
  Q 39.73 272.73 15.75 239.45
  Q 14.96 238.34 14.96 239.70
  Q 15.13 311.66 14.91 381.57
  Q 14.87 394.23 16.29 399.27
  C 20.89 415.66 35.36 426.57 52.58 426.58
  Q 106.05 426.60 160.25 426.58
  C 170.47 426.58 170.74 441.69 159.45 441.65
  Q 110.39 441.47 61.48 441.67
  Q 48.07 441.73 42.07 440.60
  C 18.45 436.16 1.59 415.99 0.00 391.98
  L 0.00 155.70
  Q 1.44 135.30 15.27 121.52
  Q 30.55 106.29 53.54 106.27
  Q 99.37 106.23 142.84 106.26
  A 0.29 0.28 -90.0 0 0 143.12 105.97
  Q 143.24 95.61 143.11 86.40
  Q 142.95 74.39 144.90 67.11
  C 149.83 48.72 164.58 34.86 183.21 30.75
  Q 189.18 29.44 202.67 29.48
  Q 241.19 29.62 277.83 29.54
  Q 299.24 29.50 314.40 44.10
  Q 329.71 58.83 329.69 82.59
  Q 329.67 95.06 329.70 105.62
  Q 329.70 106.21 330.29 106.22
  Q 368.58 106.36 412.37 106.19
  Q 424.73 106.14 430.67 107.26
  C 450.74 111.03 466.71 126.64 471.45 146.66
  Q 473.07 153.51 472.83 166.39
  Q 472.64 176.44 472.84 186.76
  A 0.79 0.78 21.7 0 0 473.07 187.29
  Q 509.15 222.21 512.00 272.86
  Z
  M 174.20 79.82
  C 174.27 68.62 183.66 60.60 194.00 60.58
  Q 235.01 60.53 279.00 60.64
  C 287.59 60.66 295.24 66.16 297.73 74.26
  Q 298.85 77.89 298.74 84.96
  Q 298.57 96.07 298.68 105.68
  Q 298.68 106.26 299.26 106.26
  L 314.03 106.26
  Q 314.65 106.26 314.66 105.63
  Q 314.72 92.10 314.62 80.25
  C 314.49 63.72 303.63 49.80 287.75 45.70
  Q 282.39 44.32 269.43 44.49
  Q 237.90 44.91 201.83 44.49
  Q 189.68 44.35 184.59 45.79
  C 169.17 50.17 158.27 63.72 158.20 79.70
  Q 158.13 92.83 158.16 105.63
  Q 158.16 106.26 158.78 106.26
  L 173.54 106.26
  Q 174.19 106.26 174.19 105.61
  Q 174.11 92.75 174.20 79.82
  Z
  M 194.07 75.58
  C 191.14 75.58 189.14 77.54 189.14 80.50
  Q 189.15 92.42 189.16 105.92
  A 0.35 0.34 89.1 0 0 189.50 106.26
  L 283.05 106.26
  Q 283.69 106.26 283.69 105.61
  Q 283.65 93.58 283.69 81.13
  Q 283.70 75.58 278.26 75.58
  Q 237.28 75.59 194.07 75.58
  Z
  M 83.12 246.74
  C 93.26 220.08 130.72 222.04 137.41 250.03
  C 138.31 253.79 138.06 257.88 138.06 261.79
  Q 138.07 262.26 138.54 262.26
  L 263.75 262.26
  Q 264.32 262.26 264.40 261.69
  Q 269.73 222.50 296.02 193.80
  C 315.89 172.10 343.26 157.53 372.75 154.25
  Q 418.55 149.16 457.35 174.61
  Q 457.83 174.92 457.81 174.35
  C 457.65 166.26 458.56 157.02 456.65 149.31
  C 452.47 132.48 437.34 121.18 419.99 121.20
  Q 245.61 121.42 57.37 121.12
  Q 47.78 121.10 42.10 122.70
  C 26.45 127.08 15.04 141.44 15.05 157.79
  Q 15.06 168.44 14.92 182.04
  Q 14.79 194.50 16.23 202.32
  C 22.13 234.51 48.17 258.20 80.87 261.95
  A 0.64 0.63 -88.1 0 0 81.57 261.29
  C 81.35 256.43 81.41 251.23 83.12 246.74
  Z
  M 496.98 277.65
  A 109.29 109.29 0.0 0 0 387.69 168.36
  A 109.29 109.29 0.0 0 0 278.40 277.65
  A 109.29 109.29 0.0 0 0 387.69 386.94
  A 109.29 109.29 0.0 0 0 496.98 277.65
  Z
  M 96.86 281.32
  L 122.74 281.32
  A 0.36 0.36 0.0 0 0 123.10 280.96
  L 123.10 256.34
  A 13.54 13.30 -90.0 0 0 109.80 242.80
  L 109.80 242.80
  A 13.54 13.30 90.0 0 0 96.50 256.34
  L 96.50 280.96
  A 0.36 0.36 0.0 0 0 96.86 281.32
  Z
  M 122.57 296.29
  L 97.01 296.33
  A 0.52 0.52 0.0 0 0 96.49 296.85
  L 96.50 304.08
  A 13.51 13.17 89.9 0 0 109.70 317.57
  L 109.96 317.57
  A 13.51 13.17 89.9 0 0 123.10 304.04
  L 123.09 296.81
  A 0.52 0.52 0.0 0 0 122.57 296.29
  Z
  M 305.0726 371.0213
  A 0.29 0.29 0.0 0 0 305.0726 370.6111
  L 294.7489 360.2874
  A 0.29 0.29 0.0 0 0 294.3387 360.2874
  L 281.6674 372.9587
  A 0.29 0.29 0.0 0 0 281.6674 373.3689
  L 291.9911 383.6926
  A 0.29 0.29 0.0 0 0 292.4013 383.6926
  L 305.0726 371.0213
  Z
  M 265.5584 378.4836
  A 0.99 0.99 0.0 0 0 264.1583 378.4836
  L 256.3236 386.3183
  A 0.99 0.99 0.0 0 0 256.3236 387.7184
  L 277.6216 409.0164
  A 0.99 0.99 0.0 0 0 279.0217 409.0164
  L 286.8564 401.1817
  A 0.99 0.99 0.0 0 0 286.8564 399.7816
  L 265.5584 378.4836
  Z
  M 267.48 420.08
  L 245.27 397.87
  A 0.37 0.37 0.0 0 0 244.74 397.87
  L 202.77 439.84
  A 16.23 16.04 -45.0 0 0 202.64 462.66
  L 202.69 462.71
  A 16.23 16.04 -45.0 0 0 225.51 462.58
  L 267.48 420.61
  A 0.37 0.37 0.0 0 0 267.48 420.08
  Z"
/>
<path fill="#000000" d="
  M 409.43 365.00
  C 363.47 376.53 317.28 350.45 302.31 306.15
  C 288.84 266.26 305.21 222.12 341.47 200.35
  C 360.23 189.09 382.96 184.93 404.60 189.16
  C 440.02 196.08 467.35 222.68 475.55 257.81
  C 477.92 268.01 463.47 271.60 460.94 261.13
  Q 454.60 234.92 434.15 218.72
  C 404.29 195.08 361.87 197.73 334.80 224.43
  C 307.07 251.77 305.24 296.19 330.27 325.96
  C 353.61 353.73 394.34 361.09 425.42 342.50
  Q 453.12 325.95 460.73 294.80
  Q 461.48 291.74 462.97 290.14
  C 467.85 284.93 477.22 289.29 475.72 296.41
  C 468.59 330.26 442.76 356.64 409.43 365.00
  Z"
/>
</svg>
